<?xml version="1.0" encoding="utf-8"?>
<!-- Svg Vector Icons : http://www.onlinewebfonts.com/icon -->
<!DOCTYPE svg PUBLIC "-//W3C//DTD SVG 1.1//EN" "http://www.w3.org/Graphics/SVG/1.1/DTD/svg11.dtd">
<svg version="1.1" xmlns="http://www.w3.org/2000/svg" xmlns:xlink="http://www.w3.org/1999/xlink" x="0px" y="0px" viewBox="0 0 256 256" enable-background="new 0 0 256 256" xml:space="preserve">
<metadata> Svg Vector Icons : http://www.onlinewebfonts.com/icon </metadata>
<g><g><path fill="#000000" d="M175.6,45.9c0,5.7,2.3,11.3,6.3,15.3c4,4,9.6,6.3,15.3,6.3s11.3-2.3,15.3-6.3c4-4,6.3-9.6,6.3-15.3c0-5.7-2.3-11.3-6.3-15.3c-4-4-9.6-6.3-15.3-6.3S186,26.7,182,30.7C177.9,34.7,175.6,40.3,175.6,45.9L175.6,45.9z"/><path fill="#000000" d="M177.7,78.6L177.7,78.6l-45.2,45.2l8.5,8.5l36.7-36.7v62.9h-35.4v0L79.3,241H62v5h47v-5l43.8-57l66,0.2v-26.6V78.6H177.7L177.7,78.6z"/><path fill="#000000" d="M37.2,133.8V246l95.5-112.2H37.2z"/><path fill="#000000" d="M132.6,126.1L39.1,49.5l18.1,76.7L132.6,126.1L132.6,126.1z"/><path fill="#000000" d="M155.4,39.5h-6.9c-0.6-2.3-1.5-4.5-2.7-6.5l4.9-4.9c0.9-0.9,0.9-2.4,0-3.3l-7.9-7.9c-0.4-0.4-1-0.7-1.6-0.7c-0.6,0-1.2,0.2-1.6,0.7l-4.9,4.9c-2-1.1-4.2-2-6.5-2.7v-6.9c0-1.3-1-2.3-2.3-2.3h-11.1c-1.3,0-2.3,1-2.3,2.3v6.9c-2.3,0.6-4.5,1.5-6.5,2.7l-4.9-4.9c-0.4-0.4-1-0.7-1.6-0.7c-0.6,0-1.2,0.2-1.6,0.7l-7.9,7.9c-0.9,0.9-0.9,2.4,0,3.3L95,33c-1.1,2-2,4.2-2.7,6.5h-6.9c-1.3,0-2.3,1-2.3,2.3v11.1c0,1.3,1,2.3,2.3,2.3h6.9c0.6,2.3,1.5,4.5,2.7,6.5l-4.9,4.9c-0.9,0.9-0.9,2.4,0,3.3l7.9,7.9c0.4,0.4,1,0.7,1.6,0.7c0.6,0,1.2-0.2,1.6-0.7l4.9-4.9c2,1.1,4.2,2,6.5,2.7v6.9c0,1.3,1,2.3,2.3,2.3H126c1.3,0,2.3-1,2.3-2.3v-6.9c2.3-0.6,4.5-1.5,6.5-2.7l4.9,4.9c0.4,0.4,1,0.7,1.6,0.7c0.6,0,1.2-0.2,1.6-0.7l7.9-7.9c0.9-0.9,0.9-2.4,0-3.3l-4.9-4.9c1.1-2,2-4.2,2.7-6.5h6.9c1.3,0,2.3-1,2.3-2.3V41.8C157.7,40.5,156.7,39.5,155.4,39.5L155.4,39.5z M140,52.8c-0.4,1.6-1.1,3.1-1.9,4.5l-2.8,5l-5,2.8c-1.4,0.8-2.9,1.4-4.5,1.9l-5.5,1.5l-5.5-1.5c-1.6-0.4-3.1-1.1-4.5-1.9l-5-2.8l-2.8-5c-0.8-1.4-1.4-2.9-1.9-4.5l-1.5-5.5l1.5-5.5c0.4-1.6,1.1-3.1,1.9-4.5l2.8-5l5-2.8c1.4-0.8,2.9-1.4,4.5-1.9l5.5-1.5l5.5,1.5c1.6,0.4,3.1,1.1,4.5,1.9l5,2.8l2.8,5c0.8,1.4,1.4,2.9,1.9,4.5l1.5,5.5L140,52.8L140,52.8z"/><path fill="#000000" d="M120.4,33.3c-7.7,0-14,6.3-14,14s6.3,14,14,14c7.7,0,14-6.3,14-14C134.4,39.6,128.1,33.3,120.4,33.3L120.4,33.3z M120.4,52.5c-2.8,0-5.2-2.3-5.2-5.2c0-2.8,2.3-5.2,5.2-5.2c2.8,0,5.2,2.3,5.2,5.2C125.5,50.2,123.3,52.5,120.4,52.5L120.4,52.5z"/></g></g>
</svg>